<svg width="99" height="14" viewBox="0 0 99 14" fill="none" xmlns="http://www.w3.org/2000/svg">
<g id="Group">
<path id="Vector" d="M8.36349 5.31382C8.05091 4.65344 7.60626 4.14275 7.02512 3.78174C6.44399 3.42074 5.766 3.24023 4.98236 3.24023C4.26034 3.24023 3.59556 3.41193 2.97921 3.75973C2.36286 4.10753 1.87858 4.583 1.51758 5.19495C1.16097 5.8113 0.980469 6.49369 0.980469 7.24652C0.980469 8.00816 1.15217 8.67294 1.49997 9.23646C1.84776 9.79998 2.33204 10.2358 2.9616 10.5484C3.59116 10.8566 4.31317 11.0107 5.13204 11.0107C5.95091 11.0107 6.65971 10.861 7.25846 10.5572C7.8572 10.2534 8.35909 9.79998 8.76412 9.19244L6.92827 8.5981C6.36915 9.18363 5.79242 9.4742 5.20688 9.4742C4.67418 9.4742 4.24273 9.3069 3.90374 8.97671C3.56915 8.64652 3.37103 8.19306 3.3138 7.62514H8.85217C8.83896 6.74464 8.67607 5.9786 8.36349 5.31382ZM3.36663 6.30879C3.43267 5.8069 3.59556 5.43269 3.85091 5.18615C4.10625 4.93961 4.44965 4.82074 4.87229 4.82074C5.27732 4.82074 5.62512 4.95722 5.92009 5.23457C6.21506 5.51193 6.39556 5.86854 6.4616 6.31319H3.36663V6.30879Z" fill="#D85D56"/>
<path id="Vector_2" d="M12.7183 0.193359H9.1875V1.89273H10.3454V9.12607H9.1875V10.8342H13.7705V9.12607H12.7183V0.193359Z" fill="#D85D56"/>
<path id="Vector_3" d="M16.5434 2.60629C16.8956 2.60629 17.1994 2.48302 17.4591 2.23648C17.7144 1.98994 17.8421 1.67736 17.8421 1.29874C17.8421 0.946541 17.7144 0.642767 17.4591 0.383019C17.1994 0.132075 16.8956 0 16.5434 0C16.1868 0 15.8786 0.127673 15.6233 0.383019C15.3679 0.638365 15.2402 0.946541 15.2402 1.29874C15.2402 1.65535 15.3679 1.96352 15.6233 2.21887C15.8786 2.47862 16.1824 2.60629 16.5434 2.60629Z" fill="#D85D56"/>
<path id="Vector_4" d="M17.6933 3.41211H14.2109V5.1511H15.3424V9.12657H14.2109V10.8348H18.794V9.12657H17.6933V3.41211Z" fill="#D85D56"/>
<path id="Vector_5" d="M21.9186 0.568359L19.5588 2.26333V3.41238H18.6211V5.15138H19.5588V9.06962C19.5588 9.66836 19.7217 10.1306 20.0431 10.4564C20.3645 10.7822 20.8488 10.9451 21.4959 10.9451C22.0551 10.9451 22.6538 10.8218 23.2878 10.5709V8.92433C23.0016 9.02999 22.7551 9.07842 22.5525 9.07842C22.306 9.07842 22.1387 9.02119 22.0507 8.90672C21.9626 8.79226 21.9186 8.62056 21.9186 8.38723V5.15138H23.2878V3.41238H21.9186V0.568359Z" fill="#D85D56"/>
<path id="Vector_6" d="M30.9402 5.31382C30.6276 4.65344 30.1829 4.14275 29.6018 3.78174C29.0207 3.42074 28.3427 3.24023 27.559 3.24023C26.837 3.24023 26.1722 3.41193 25.5559 3.75973C24.9395 4.10753 24.4553 4.583 24.0942 5.19495C23.7332 5.8069 23.5527 6.48929 23.5527 7.24212C23.5527 8.00376 23.7244 8.66854 24.0722 9.23206C24.42 9.79558 24.9043 10.2314 25.5339 10.544C26.1634 10.8522 26.8854 11.0063 27.7043 11.0063C28.5232 11.0063 29.232 10.8566 29.8307 10.5528C30.4295 10.249 30.9314 9.79558 31.3364 9.18803L29.5005 8.59369C28.9414 9.17923 28.3647 9.46979 27.7791 9.46979C27.2464 9.46979 26.815 9.3025 26.476 8.97231C26.1414 8.64212 25.9433 8.18866 25.8861 7.62074H31.4244C31.4112 6.74464 31.2527 5.9786 30.9402 5.31382ZM25.9433 6.30879C26.0093 5.8069 26.1722 5.43269 26.4276 5.18615C26.6829 4.93961 27.0263 4.82074 27.449 4.82074C27.854 4.82074 28.2018 4.95722 28.4968 5.23457C28.7917 5.51193 28.9722 5.86854 29.0383 6.31319H25.9433V6.30879Z" fill="#D85D56"/>
<path id="Vector_7" d="M39.4239 3.66696C38.8736 3.32356 38.2528 3.14746 37.5484 3.14746C37.0465 3.14746 36.5711 3.25312 36.1308 3.46444C35.6862 3.67576 35.2855 3.99715 34.9157 4.433V3.24872H32.2126V4.55627H33.4541V12.6965H32.1113V13.9953H36.3642V12.6965H34.9157V9.74243C35.6598 10.5041 36.5271 10.8871 37.522 10.8871C38.1956 10.8871 38.8076 10.711 39.3623 10.3632C39.917 10.0154 40.3528 9.53991 40.6742 8.93677C40.9956 8.33362 41.1541 7.68645 41.1541 6.99526C41.1541 6.29966 41.0044 5.65689 40.7006 5.06696C40.3925 4.48142 39.9698 4.01476 39.4239 3.66696ZM39.3579 8.24117C39.173 8.6462 38.922 8.96759 38.5962 9.20092C38.2704 9.43866 37.905 9.55312 37.5 9.55312C36.7428 9.55312 36.1176 9.333 35.6333 8.89715C35.1447 8.4613 34.9025 7.85375 34.9025 7.08331C34.9025 6.60344 35.0038 6.16318 35.2063 5.76256C35.4088 5.36193 35.695 5.04054 36.0604 4.7984C36.4258 4.55627 36.8396 4.433 37.3019 4.433C37.7465 4.433 38.1428 4.54746 38.495 4.77639C38.8472 5.00532 39.1245 5.3091 39.3271 5.69652C39.5296 6.07954 39.6308 6.50218 39.6308 6.95564C39.6352 7.4091 39.5428 7.83614 39.3579 8.24117Z" fill="#052D41"/>
<path id="Vector_8" d="M45.0053 3.53928C44.5651 3.79903 44.1953 4.2613 43.9003 4.92608V3.24872H41.25V4.55627H42.7425V9.37262H41.2544V10.6714H45.811V9.37262H44.1953V7.69086C44.1953 6.8984 44.2569 6.29526 44.3846 5.87702C44.5079 5.45878 44.7632 5.1462 45.1506 4.93929C45.5381 4.73237 46.1236 4.62671 46.916 4.62671H47.233V3.14746H46.9028C46.0752 3.14746 45.4456 3.27954 45.0053 3.53928Z" fill="#052D41"/>
<path id="Vector_9" d="M53.248 3.58349C52.6536 3.22688 51.9933 3.05078 51.2625 3.05078C50.5096 3.05078 49.836 3.21808 49.2417 3.55707C48.6474 3.89166 48.1851 4.35833 47.8549 4.95267C47.5247 5.54701 47.3574 6.22059 47.3574 6.97342C47.3574 7.69543 47.5247 8.35141 47.8549 8.95015C48.1851 9.54889 48.6518 10.02 49.2505 10.3678C49.8492 10.7156 50.5184 10.8917 51.2625 10.8917C51.9845 10.8917 52.6404 10.7156 53.2348 10.3678C53.8291 10.02 54.2958 9.54449 54.6392 8.95015C54.9826 8.35141 55.1543 7.69103 55.1543 6.97342C55.1543 6.26902 54.9826 5.61745 54.648 5.01871C54.309 4.41556 53.8423 3.94009 53.248 3.58349ZM53.3052 8.21933C53.1027 8.60235 52.8209 8.90613 52.4599 9.13065C52.0989 9.35518 51.6983 9.46965 51.2669 9.46965C50.8354 9.46965 50.4348 9.35518 50.065 9.13065C49.6996 8.90613 49.409 8.59795 49.2021 8.21053C48.9952 7.82311 48.8895 7.40927 48.8895 6.96902C48.8895 6.52437 48.9952 6.11053 49.2021 5.72751C49.409 5.34009 49.6952 5.03632 50.0562 4.80738C50.4172 4.57845 50.8178 4.46399 51.2492 4.46399C51.6939 4.46399 52.0945 4.57845 52.4555 4.81179C52.8165 5.04512 53.0983 5.3533 53.3008 5.73191C53.5033 6.11493 53.6046 6.52437 53.6046 6.96902C53.609 7.42248 53.5077 7.83632 53.3052 8.21933Z" fill="#052D41"/>
<path id="Vector_10" d="M59.7057 6.37451L58.724 6.1852C58.0724 6.07954 57.6586 5.96067 57.4693 5.82419C57.2844 5.68771 57.1919 5.4984 57.1919 5.26067C57.1919 4.99212 57.3152 4.77199 57.5573 4.60469C57.8039 4.433 58.1164 4.34935 58.5039 4.34935C59.2391 4.34935 59.8158 4.65312 60.2429 5.26067V5.71413H61.5152V3.24872H60.2429V3.5657C59.7586 3.28834 59.1598 3.14746 58.451 3.14746C58.0284 3.14746 57.6145 3.23111 57.2139 3.394C56.8133 3.55689 56.4875 3.80344 56.2278 4.13362C55.9724 4.45941 55.8447 4.85564 55.8447 5.3179C55.8447 5.88583 56.0208 6.35689 56.3686 6.7223C56.7164 7.08771 57.2668 7.34746 58.0152 7.49715L58.7724 7.66004C59.4284 7.78771 59.8642 7.91098 60.08 8.02985C60.2957 8.14872 60.4057 8.32922 60.4057 8.57136C60.4057 8.90155 60.2693 9.14809 59.9963 9.31539C59.7234 9.48268 59.3491 9.56633 58.8737 9.56633C58.4422 9.56633 58.0592 9.45627 57.7334 9.24054C57.4076 9.02482 57.2051 8.73866 57.1347 8.37765V8.1223H55.8359V10.6626H57.1347V10.2619C57.3592 10.4116 57.641 10.5393 57.98 10.6405C58.3146 10.7418 58.6579 10.7902 59.0057 10.7902C59.8818 10.7902 60.5863 10.5833 61.1146 10.1695C61.6429 9.75564 61.907 9.20532 61.907 8.52293C61.9026 7.36067 61.1718 6.64306 59.7057 6.37451Z" fill="#052D41"/>
<path id="Vector_11" d="M69.3336 3.66696C68.7877 3.31916 68.1625 3.14746 67.4625 3.14746C66.9606 3.14746 66.4851 3.25312 66.0449 3.46444C65.6002 3.67576 65.1996 3.99715 64.8298 4.433V3.24872H62.1267V4.55627H63.3682V12.6965H62.0254V13.9953H66.2782V12.6965H64.8298V9.74243C65.5738 10.5041 66.4411 10.8871 67.4361 10.8871C68.1097 10.8871 68.7216 10.711 69.2763 10.3632C69.831 10.0154 70.2669 9.53991 70.5883 8.93677C70.9097 8.33362 71.0682 7.68645 71.0682 6.99526C71.0682 6.29966 70.9185 5.65689 70.6147 5.06696C70.3065 4.48142 69.8795 4.01476 69.3336 3.66696ZM69.2719 8.24117C69.087 8.6462 68.8361 8.96759 68.5103 9.20092C68.1845 9.43866 67.8191 9.55312 67.4141 9.55312C66.6568 9.55312 66.0317 9.333 65.5474 8.89715C65.0587 8.4613 64.8166 7.85375 64.8166 7.08331C64.8166 6.60344 64.9178 6.16318 65.1204 5.76256C65.3229 5.36193 65.609 5.04054 65.9744 4.7984C66.3399 4.55627 66.7581 4.433 67.216 4.433C67.6606 4.433 68.0568 4.54746 68.409 4.77639C68.7612 5.00532 69.0386 5.3091 69.2411 5.69652C69.4436 6.07954 69.5449 6.50218 69.5449 6.95564C69.5449 7.4091 69.4568 7.83614 69.2719 8.24117Z" fill="#052D41"/>
<path id="Vector_12" d="M78.9136 5.05393C78.579 4.41116 78.1212 3.91808 77.54 3.57028C76.9589 3.22248 76.2765 3.05078 75.4973 3.05078C74.7797 3.05078 74.1281 3.21808 73.5337 3.55707C72.9394 3.89166 72.4727 4.36273 72.1337 4.95707C71.7903 5.55581 71.623 6.22499 71.623 6.96902C71.623 7.71745 71.7947 8.39103 72.1425 8.98977C72.4903 9.58852 72.9702 10.0552 73.5954 10.3898C74.2161 10.7244 74.9293 10.8917 75.7262 10.8917C76.4966 10.8917 77.2142 10.7288 77.8702 10.4074C78.5262 10.086 79.0589 9.60613 79.4639 8.97657L78.1784 8.39543C77.8966 8.81367 77.5444 9.12625 77.1262 9.32877C76.708 9.53128 76.2545 9.63254 75.7614 9.63254C75.0922 9.63254 74.5287 9.42562 74.0664 9.01619C73.6042 8.60235 73.3312 8.04323 73.2388 7.33003H79.4595C79.4287 6.45393 79.2482 5.69669 78.9136 5.05393ZM73.2784 6.28223C73.3973 5.67468 73.6614 5.186 74.0752 4.81619C74.4891 4.44638 74.9734 4.26147 75.5237 4.26147C76.1048 4.26147 76.6155 4.44638 77.0558 4.81619C77.5004 5.186 77.7866 5.67468 77.923 6.28223H73.2784Z" fill="#052D41"/>
<path id="Vector_13" d="M83.8497 9.5533C83.1717 9.5533 82.6258 9.30676 82.212 8.81367C81.7981 8.32059 81.5912 7.68663 81.5912 6.91179C81.5912 6.45393 81.6837 6.03569 81.8686 5.64827C82.0535 5.26084 82.3132 4.95707 82.6478 4.72814C82.9824 4.50361 83.3654 4.38915 83.7881 4.38915C84.2812 4.38915 84.717 4.53003 85.0956 4.81619C85.4742 5.10235 85.69 5.51619 85.7472 6.0577H87.0459V3.24889H85.7472V3.786C85.1661 3.29732 84.4749 3.05078 83.6648 3.05078C82.9824 3.05078 82.3617 3.21808 81.807 3.54827C81.2522 3.87845 80.8164 4.34072 80.495 4.93506C80.178 5.5294 80.0195 6.18537 80.0195 6.91179C80.0195 7.65141 80.178 8.32499 80.4906 8.93254C80.8032 9.54009 81.2478 10.0156 81.8202 10.3678C82.3925 10.7156 83.0529 10.8917 83.7925 10.8917C85.4434 10.8917 86.6145 10.152 87.2969 8.67279L86.0818 8.09166C85.6415 9.06462 84.9019 9.5533 83.8497 9.5533Z" fill="#052D41"/>
<path id="Vector_14" d="M90.0122 0.791992L88.5506 2.12595V3.2486H87.582V4.55614H88.5506V8.75174C88.5506 9.50017 88.6827 10.0285 88.9512 10.3366C89.2198 10.6448 89.66 10.7989 90.272 10.7989C90.5493 10.7989 90.9147 10.7329 91.3682 10.6008V9.28004C91.1084 9.36809 90.8487 9.41212 90.5934 9.41212C90.382 9.41212 90.2323 9.35048 90.1443 9.23162C90.0562 9.11275 90.0122 8.8486 90.0122 8.44357V4.55174H91.3682V3.2486H90.0122V0.791992Z" fill="#052D41"/>
<path id="Vector_15" d="M95.8327 6.37451L94.8509 6.1852C94.1994 6.07954 93.7855 5.96067 93.5962 5.82419C93.4113 5.68771 93.3189 5.4984 93.3189 5.26067C93.3189 4.99212 93.4421 4.77199 93.6843 4.60469C93.9308 4.433 94.2434 4.34935 94.6308 4.34935C95.366 4.34935 95.9428 4.65312 96.3698 5.26067V5.71413H97.6421V3.24872H96.3698V3.5657C95.8855 3.28834 95.2868 3.14746 94.578 3.14746C94.1553 3.14746 93.7415 3.23111 93.3409 3.394C92.9403 3.55689 92.6145 3.80344 92.3547 4.13362C92.0994 4.45941 91.9717 4.85564 91.9717 5.3179C91.9717 5.88583 92.1478 6.35689 92.4956 6.7223C92.8434 7.08771 93.3937 7.34746 94.1421 7.49715L94.8994 7.66004C95.5553 7.78771 95.9912 7.91098 96.2069 8.02985C96.4226 8.14872 96.5327 8.32922 96.5327 8.57136C96.5327 8.90155 96.3962 9.14809 96.1233 9.31539C95.8503 9.48268 95.4761 9.56633 95.0006 9.56633C94.5692 9.56633 94.1862 9.45627 93.8604 9.24054C93.5346 9.02482 93.3365 8.73866 93.2616 8.37765V8.1223H91.9629V10.6626H93.2616V10.2619C93.4862 10.4116 93.7679 10.5393 94.1069 10.6405C94.4415 10.7418 94.7849 10.7902 95.1327 10.7902C96.0088 10.7902 96.7132 10.5833 97.2415 10.1695C97.7698 9.75564 98.034 9.20532 98.034 8.52293C98.0295 7.36067 97.2987 6.64306 95.8327 6.37451Z" fill="#052D41"/>
</g>
</svg>
