<svg width="19" height="18" viewBox="0 0 19 18" fill="none" xmlns="http://www.w3.org/2000/svg">
<g id="House">
<path id="Vector" d="M16.1192 7.44255L10.4942 1.81755C10.2305 1.55392 9.87289 1.40582 9.50001 1.40582C9.12712 1.40582 8.7695 1.55392 8.50579 1.81755L2.88079 7.44255C2.74967 7.57286 2.64574 7.72791 2.57501 7.8987C2.50428 8.06949 2.46816 8.25262 2.46876 8.43747V15.1875C2.46876 15.4113 2.55765 15.6259 2.71589 15.7841C2.87412 15.9423 3.08873 16.0312 3.31251 16.0312H7.81251C8.03628 16.0312 8.2509 15.9423 8.40913 15.7841C8.56736 15.6259 8.65626 15.4113 8.65626 15.1875V11.5312H10.3438V15.1875C10.3438 15.4113 10.4327 15.6259 10.5909 15.7841C10.7491 15.9423 10.9637 16.0312 11.1875 16.0312H15.6875C15.9113 16.0312 16.1259 15.9423 16.2841 15.7841C16.4424 15.6259 16.5313 15.4113 16.5313 15.1875V8.43747C16.5319 8.25262 16.4957 8.06949 16.425 7.8987C16.3543 7.72791 16.2503 7.57286 16.1192 7.44255ZM14.8438 14.3437H12.0313V10.6875C12.0313 10.4637 11.9424 10.2491 11.7841 10.0909C11.6259 9.93262 11.4113 9.84372 11.1875 9.84372H7.81251C7.58873 9.84372 7.37412 9.93262 7.21589 10.0909C7.05765 10.2491 6.96876 10.4637 6.96876 10.6875V14.3437H4.15626V8.55349L9.50001 3.20974L14.8438 8.55349V14.3437Z" fill="#0B9D52"/>
</g>
</svg>
