<svg width="48" height="48" viewBox="0 0 48 48" fill="none" xmlns="http://www.w3.org/2000/svg">
<g clip-path="url(#clip0_14737_125488)">
<path d="M24 48C37.2548 48 48 37.2548 48 24C48 10.7452 37.2548 0 24 0C10.7452 0 0 10.7452 0 24C0 37.2548 10.7452 48 24 48Z" fill="#052D41"/>
<path d="M22.4655 23.2976C22.3977 22.2994 22.2067 21.3751 21.8863 20.5309C21.4796 19.4526 20.7587 18.553 19.7112 17.8321C18.6698 17.1112 17.4313 16.7476 15.9956 16.7476C14.0177 16.7476 12.3972 17.3946 11.1155 18.6886C9.84004 19.9825 9.19922 21.5908 9.19922 23.5255M9.20538 23.5194C9.20538 25.4172 9.82155 26.9453 11.0601 28.1099C12.2986 29.2744 14.0239 29.8537 16.2298 29.8537C18.9964 29.8537 21.0359 28.8308 22.3361 26.7913L19.2305 25.7992C18.257 26.7789 17.2896 27.2719 16.3284 27.2719C15.5951 27.2719 14.8988 27.0377 14.2395 26.5571C13.5802 26.0827 13.2167 25.2755 13.1612 24.1356H22.4901C22.4901 23.8521 22.4778 23.5687 22.4593 23.2976M13.2352 21.9112C13.4755 20.2352 14.332 19.3972 15.7923 19.3972C16.5748 19.3972 17.1972 19.6436 17.647 20.1304C18.1029 20.6234 18.3741 21.2149 18.4665 21.9112H13.2352Z" fill="white"/>
<path d="M38.7935 23.2483C38.7935 21.3196 38.2204 19.7484 37.0682 18.5407C35.9159 17.333 34.4617 16.7291 32.7056 16.7291C31.7013 16.7291 30.9619 16.9941 30.8078 17.0495C29.4831 17.5178 28.6574 18.3928 28.2569 18.8857C28.2569 18.2326 28.2569 17.5733 28.2569 16.9201C26.7288 16.9201 25.2068 16.9201 23.6787 16.9201V17.5733V19.1076H25.7922V32.8606H23.5V35.048H30.6846V32.8606H28.2507V27.8819C29.5262 29.1574 30.9927 29.7982 32.6502 29.7982C34.2461 29.7982 35.6694 29.2128 36.9203 28.0421C38.165 26.8714 38.7935 25.2755 38.7935 23.2483ZM35.0902 26.3846C34.3262 27.1671 33.3588 27.5615 32.1881 27.5615C31.3501 27.5615 30.623 27.3458 30.0006 26.9207C29.3783 26.4955 28.9285 25.9656 28.6451 25.3371C28.3616 24.7086 28.2199 24.0493 28.2199 23.3592C28.2199 22.0159 28.6327 20.9376 29.4584 20.1242C30.2841 19.3109 31.2392 18.9042 32.3236 18.9042C33.3403 18.9042 34.2522 19.2801 35.0471 20.0257C35.842 20.7774 36.2425 21.8187 36.2425 23.1497C36.2363 24.5237 35.8543 25.602 35.0902 26.3846Z" fill="#D85D56"/>
</g>
<defs>
<clipPath id="clip0_14737_125488">
<rect width="48" height="48" fill="white"/>
</clipPath>
</defs>
</svg>
